<svg width="26" height="36" viewBox="0 0 26 36" fill="none" xmlns="http://www.w3.org/2000/svg">
<path d="M25.6336 29.4294L22.4007 24.5826L21.2354 22.836C21.491 22.6778 21.7122 22.4698 21.8857 22.2244C22.0592 21.9789 22.1816 21.701 22.2455 21.4073C22.3094 21.1135 22.3135 20.8099 22.2576 20.5146C22.2017 20.2192 22.0869 19.9381 21.9201 19.688L20.4619 17.5024L18.817 15.0374L18.523 14.5967L17.6511 13.2863C17.9172 13.1869 18.1574 13.0286 18.3538 12.8233C18.5501 12.618 18.6975 12.371 18.7849 12.1007C18.8724 11.8304 18.8977 11.5439 18.8588 11.2625C18.82 10.9811 18.7181 10.7121 18.5607 10.4756L16.8799 7.95553L14.5695 4.49217C14.3973 4.23418 14.1641 4.02267 13.8907 3.87639C13.6172 3.7301 13.3118 3.65356 13.0017 3.65356C12.6915 3.65356 12.3861 3.7301 12.1127 3.87639C11.8392 4.02267 11.606 4.23418 11.4338 4.49217L9.12343 7.95553L7.44262 10.4756C7.28523 10.7121 7.18332 10.9811 7.14449 11.2625C7.10566 11.5439 7.13092 11.8304 7.21838 12.1007C7.30584 12.371 7.45324 12.618 7.64957 12.8233C7.84589 13.0286 8.08608 13.1869 8.35217 13.2863L7.47635 14.5967L7.18235 15.0374L5.53864 17.5024L4.08044 19.6886C3.91362 19.9387 3.79884 20.2198 3.74293 20.5151C3.68703 20.8105 3.69114 21.1141 3.75503 21.4078C3.81892 21.7016 3.94128 21.9795 4.11481 22.2249C4.28835 22.4704 4.50951 22.6784 4.76513 22.8366L3.59756 24.5821L0.367481 29.4289C-0.502718 30.7342 0.251679 32.5055 1.7987 32.7781C5.49735 33.4263 9.24552 33.7504 13.0005 33.7467C16.7557 33.7504 20.5041 33.4263 24.2029 32.7781C25.746 32.5055 26.5027 30.7342 25.6336 29.4294Z" fill="#61A633"/>
<path d="M25.6336 29.4293L22.4007 24.5825H22.3973C19.293 25.1093 16.1498 25.3725 13.0011 25.3695C9.85243 25.3725 6.70916 25.1093 3.60487 24.5825H3.59756L0.367481 29.4288C-0.502718 30.7341 0.251679 32.5054 1.7987 32.778C5.49735 33.4262 9.24552 33.7503 13.0005 33.7466C16.7557 33.7503 20.5041 33.4262 24.2029 32.778C25.746 32.5054 26.5027 30.7341 25.6336 29.4293Z" fill="#61A633"/>
<path d="M17.6512 13.2861C17.5457 13.3256 17.437 13.3559 17.3263 13.3766C16.6112 13.5097 15.8786 13.6096 15.1283 13.6763C14.432 13.7377 13.7233 13.769 13.0023 13.7701C12.282 13.7701 11.5733 13.7388 10.8762 13.6763C10.1267 13.6099 9.39404 13.5101 8.67824 13.3766C8.56752 13.3559 8.45881 13.3256 8.35332 13.2861L7.47638 14.5965C7.49549 14.6004 7.51404 14.6055 7.53259 14.6089C8.34246 14.7588 9.17049 14.8759 10.0167 14.9602C10.9911 15.0561 11.9842 15.1049 12.9961 15.1064C14.0079 15.1064 15.001 15.0576 15.9754 14.9602C16.8205 14.877 17.6486 14.7599 18.4595 14.6089C18.4787 14.6055 18.4978 14.6004 18.5158 14.5965L17.6512 13.2861Z" fill="#5B9934"/>
<path d="M18.5584 10.4761L16.8776 7.95602L14.5672 4.49265C14.3951 4.23467 14.1619 4.02316 13.8884 3.87687C13.6149 3.73059 13.3096 3.65405 12.9994 3.65405C12.6893 3.65405 12.3839 3.73059 12.1104 3.87687C11.8369 4.02316 11.6038 4.23467 11.4316 4.49265L9.12118 7.95602L7.44037 10.4761C7.28298 10.7126 7.18107 10.9816 7.14224 11.263C7.10341 11.5444 7.12867 11.8309 7.21613 12.1012C7.30359 12.3715 7.45099 12.6185 7.64731 12.8238C7.84364 13.0291 8.08382 13.1874 8.34992 13.2868C8.4554 13.3263 8.56411 13.3566 8.67484 13.3773C9.38988 13.5104 10.1225 13.6102 10.8728 13.677C11.5691 13.7384 12.2782 13.7703 13 13.7725C13.7203 13.7725 14.4289 13.7412 15.126 13.6786C15.8755 13.6123 16.6082 13.5124 17.324 13.379C17.4347 13.3583 17.5434 13.328 17.6489 13.2885C17.9152 13.1891 18.1557 13.0308 18.3522 12.8254C18.5487 12.6199 18.6962 12.3727 18.7837 12.1022C18.8712 11.8317 18.8963 11.545 18.8573 11.2634C18.8183 10.9818 18.7162 10.7126 18.5584 10.4761Z" fill="#61A633"/>
<path d="M21.2342 22.8352C20.989 22.9858 20.717 23.0878 20.4332 23.1354C17.9772 23.5522 15.4904 23.7606 12.9994 23.7582C10.5081 23.7606 8.02116 23.5522 5.56504 23.1354C5.2812 23.0878 5.00922 22.9858 4.76398 22.8352L3.59753 24.5818H3.60091C6.7052 25.1085 9.84848 25.3718 12.9971 25.3688C16.1458 25.3718 19.2891 25.1085 22.3934 24.5818H22.3967L21.2342 22.8352Z" fill="#5B9934"/>
<path d="M21.9189 19.6883L20.4619 17.5022L18.817 15.0372L18.523 14.5964C18.5039 14.6004 18.4854 14.6054 18.4668 14.6088C17.657 14.7587 16.8289 14.8758 15.9827 14.9601C15.0083 15.0561 14.0152 15.1048 13.0034 15.1063C11.9915 15.1063 10.9984 15.0576 10.024 14.9601C9.1789 14.8769 8.35086 14.7598 7.53988 14.6088C7.52076 14.6054 7.50165 14.6004 7.48366 14.5964L7.18966 15.0372L5.53865 17.5022L4.08044 19.6883C3.87242 19.9983 3.74542 20.3555 3.71105 20.7273C3.67669 21.099 3.73605 21.4734 3.88373 21.8163C4.0314 22.1592 4.26267 22.4596 4.55639 22.69C4.8501 22.9204 5.1969 23.0736 5.56507 23.1354C8.02101 23.5522 10.5078 23.7606 12.9989 23.7583C15.4899 23.7606 17.9767 23.5522 20.4326 23.1354C20.801 23.0738 21.148 22.9207 21.4419 22.6903C21.7359 22.4599 21.9673 22.1595 22.1151 21.8165C22.2629 21.4735 22.3224 21.099 22.288 20.7271C22.2536 20.3552 22.1266 19.9979 21.9184 19.6878L21.9189 19.6883Z" fill="#61A633"/>
<path d="M13 32.9275H7.72876L8.28416 34.2238C8.4108 34.5188 8.60272 34.7813 8.84546 34.9914C9.08821 35.2015 9.37545 35.3538 9.68558 35.4369C10.7669 35.731 11.8817 35.8844 13.0022 35.8934C14.1228 35.8844 15.2375 35.731 16.3189 35.4369C16.629 35.3538 16.9163 35.2015 17.159 34.9914C17.4017 34.7813 17.5937 34.5188 17.7203 34.2238L18.2695 32.9275H13Z" fill="#8E6942"/>
<path d="M7.72876 32.9275L8.28416 34.2238C8.4108 34.5188 8.60272 34.7813 8.84546 34.9914C9.08821 35.2015 9.37545 35.3538 9.68558 35.4369C10.7669 35.731 11.8817 35.8844 13.0022 35.8934V32.9275H7.72876Z" fill="#997350"/>
<path d="M18.2695 32.9275H13V35.8928C14.1205 35.8839 15.2353 35.7304 16.3166 35.4363C16.6267 35.3533 16.914 35.201 17.1567 34.9908C17.3995 34.7807 17.5914 34.5183 17.718 34.2232L18.2695 32.9275Z" fill="#8E6942"/>
<path d="M25.6336 29.4293L22.4007 24.5825H22.3973C19.293 25.1093 16.1498 25.3725 13.0011 25.3695V33.7455C16.7563 33.7492 20.5047 33.4251 24.2035 32.7769C25.746 32.5054 26.5027 30.7341 25.6336 29.4293Z" fill="#61A633"/>
<path d="M13 25.3703C9.85131 25.3733 6.70803 25.11 3.60374 24.5833H3.59756L0.367481 29.4289C-0.502718 30.7342 0.251679 32.5055 1.7987 32.7782C5.49735 33.4264 9.24552 33.7504 13.0005 33.7468V25.3708L13 25.3703Z" fill="#62B532"/>
<path d="M10.874 13.677C10.1245 13.6107 9.39179 13.5108 8.67599 13.3774C8.56527 13.3567 8.45656 13.3264 8.35107 13.2869L7.47638 14.5967C7.49549 14.6006 7.51404 14.6057 7.53259 14.609C8.34246 14.7589 9.17049 14.876 10.0167 14.9604C10.9911 15.0563 11.9842 15.105 12.9961 15.1065V13.7726C12.2769 13.7726 11.5695 13.7407 10.874 13.677Z" fill="#60A434"/>
<path d="M17.6511 13.2861C17.5456 13.3256 17.4369 13.3559 17.3262 13.3766C16.6112 13.5097 15.8785 13.6096 15.1282 13.6763C14.4319 13.7377 13.7232 13.769 13.0022 13.7701V15.1058C14.0141 15.1058 15.0072 15.0571 15.9816 14.9596C16.8266 14.8764 17.6547 14.7593 18.4657 14.6083C18.4848 14.6049 18.5039 14.5999 18.5219 14.5959L17.6511 13.2861Z" fill="#5B9934"/>
<path d="M18.5584 10.4762L16.8776 7.95615L14.5672 4.49278C14.396 4.23397 14.1632 4.02181 13.8896 3.87539C13.616 3.72898 13.3103 3.65292 13 3.65407V13.7727C13.7203 13.7727 14.4289 13.7414 15.126 13.6788C15.8755 13.6124 16.6082 13.5126 17.324 13.3792C17.4347 13.3584 17.5434 13.3282 17.6489 13.2886C17.9152 13.1893 18.1557 13.0309 18.3522 12.8255C18.5487 12.6201 18.6962 12.3729 18.7837 12.1024C18.8712 11.8319 18.8963 11.5451 18.8573 11.2635C18.8183 10.9819 18.7162 10.7128 18.5584 10.4762Z" fill="#61A633"/>
<path d="M11.4321 4.49279L9.12173 7.95615L7.44092 10.4762C7.28353 10.7127 7.18162 10.9817 7.14279 11.2631C7.10396 11.5445 7.12922 11.8311 7.21668 12.1013C7.30414 12.3716 7.45154 12.6186 7.64786 12.8239C7.84419 13.0292 8.08437 13.1875 8.35047 13.287C8.45595 13.3265 8.56466 13.3568 8.67539 13.3775C9.39043 13.5105 10.1231 13.6104 10.8734 13.6771C11.5693 13.7385 12.2782 13.7704 13 13.7727V3.65407C12.6896 3.65283 12.3837 3.72885 12.11 3.87526C11.8363 4.02168 11.6034 4.23389 11.4321 4.49279Z" fill="#62B532"/>
<path d="M20.4332 23.1355C17.9773 23.5523 15.4905 23.7606 12.9994 23.7583V25.37C16.1481 25.373 19.2914 25.1097 22.3957 24.583H22.399L21.2337 22.8364C20.9885 22.9866 20.7168 23.0881 20.4332 23.1355Z" fill="#5B9934"/>
<path d="M12.9999 25.3699V23.7582C10.5085 23.7606 8.02135 23.5523 5.56504 23.1354C5.2812 23.0878 5.00922 22.9858 4.76398 22.8352L3.59753 24.5818H3.60091C6.70609 25.1091 9.85032 25.3727 12.9999 25.3699Z" fill="#60A434"/>
<path d="M13 15.1058C11.9881 15.1058 10.995 15.0571 10.0206 14.9597C9.17553 14.8765 8.34749 14.7593 7.5365 14.6083C7.51739 14.6049 7.49828 14.5999 7.48029 14.5959L7.18629 15.0367L5.53865 17.5022L4.08044 19.6884C3.87242 19.9984 3.74542 20.3556 3.71105 20.7273C3.67669 21.0991 3.73605 21.4735 3.88373 21.8164C4.0314 22.1592 4.26267 22.4596 4.55639 22.6901C4.8501 22.9205 5.1969 23.0736 5.56507 23.1355C8.02101 23.5523 10.5078 23.7606 12.9989 23.7583V15.1058H13Z" fill="#62B532"/>
<path d="M21.919 19.6883L20.4619 17.5022L18.817 15.0372L18.523 14.5964C18.5039 14.6004 18.4854 14.6054 18.4668 14.6088C17.657 14.7587 16.8289 14.8758 15.9827 14.9601C15.0083 15.0561 14.0152 15.1048 13.0034 15.1063V23.7583C15.4944 23.7606 17.9812 23.5522 20.4371 23.1354C20.8055 23.0738 21.1525 22.9207 21.4464 22.6903C21.7404 22.4599 21.9718 22.1595 22.1196 21.8165C22.2674 21.4735 22.3269 21.099 22.2925 20.7271C22.2581 20.3552 22.1311 19.9979 21.9229 19.6878L21.919 19.6883Z" fill="#61A633"/>
<path d="M16.6534 2.65449H14.4554C14.3693 2.65461 14.2853 2.62749 14.2155 2.57701C14.1458 2.52652 14.0937 2.45526 14.0669 2.37341L13.3879 0.281116C13.3621 0.198656 13.3103 0.126742 13.2403 0.0760922C13.1703 0.0254419 13.0858 -0.00123281 12.9994 4.37757e-05V4.24929L17.0412 2.93612C17.0156 2.85365 16.9639 2.78168 16.894 2.73093C16.8241 2.68018 16.7397 2.65337 16.6534 2.65449Z" fill="#F4D553"/>
<path d="M17.0412 2.93604L12.9994 4.2492L15.497 7.68727C15.5677 7.6374 15.6204 7.56599 15.6471 7.48371C15.6739 7.40144 15.6733 7.31272 15.6454 7.23081L14.9669 5.14076C14.9403 5.05876 14.9403 4.97041 14.9669 4.88841C14.9936 4.8064 15.0455 4.73495 15.1153 4.6843L16.8934 3.39137C16.9637 3.34148 17.0161 3.27023 17.0428 3.1882C17.0694 3.10617 17.0689 3.01774 17.0412 2.93604Z" fill="#FFE164"/>
<path d="M13 4.24902L10.5024 7.68709C10.5717 7.73892 10.6559 7.76692 10.7424 7.76692C10.8289 7.76692 10.9132 7.73892 10.9825 7.68709L12.7605 6.39416C12.8303 6.34344 12.9143 6.31611 13.0005 6.31611C13.0868 6.31611 13.1708 6.34344 13.2406 6.39416L15.0186 7.68709C15.0879 7.73892 15.1721 7.76692 15.2587 7.76692C15.3452 7.76692 15.4294 7.73892 15.4987 7.68709L13 4.24902Z" fill="#F4D553"/>
<path d="M12.6115 0.281101L11.9325 2.37227C11.9057 2.45412 11.8537 2.52538 11.7839 2.57587C11.7141 2.62635 11.6302 2.65347 11.544 2.65335H9.34605C9.25966 2.65207 9.17517 2.67874 9.10517 2.72939C9.03517 2.78005 8.98341 2.85196 8.95761 2.93442L12.9989 4.24759V2.87878e-05C12.9127 -0.00100413 12.8284 0.0257835 12.7587 0.0764161C12.6889 0.127049 12.6373 0.198828 12.6115 0.281101Z" fill="#FFE164"/>
<path d="M8.95818 2.93604C8.93034 3.01795 8.92975 3.10666 8.9565 3.18894C8.98325 3.27121 9.0359 3.34262 9.10658 3.3925L10.8846 4.68543C10.9544 4.73608 11.0064 4.80753 11.033 4.88953C11.0597 4.97154 11.0597 5.05988 11.033 5.14189L10.354 7.23194C10.3261 7.31385 10.3256 7.40257 10.3523 7.48484C10.379 7.56711 10.4317 7.63852 10.5024 7.6884L13 4.25033L8.95818 2.93604Z" fill="#F7CE21"/>
<mask id="mask0_221_418" style="mask-type:luminance" maskUnits="userSpaceOnUse" x="0" y="3" width="26" height="31">
<path d="M25.6336 29.4294L22.4007 24.5826L21.2354 22.836C21.491 22.6778 21.7122 22.4698 21.8857 22.2244C22.0592 21.9789 22.1816 21.701 22.2455 21.4073C22.3094 21.1135 22.3135 20.8099 22.2576 20.5146C22.2017 20.2192 22.0869 19.9381 21.9201 19.688L20.4619 17.5024L18.817 15.0374L18.523 14.5967L17.6511 13.2863C17.9172 13.1869 18.1574 13.0286 18.3538 12.8233C18.5501 12.618 18.6975 12.371 18.7849 12.1007C18.8724 11.8304 18.8977 11.5439 18.8588 11.2625C18.82 10.9811 18.7181 10.7121 18.5607 10.4756L16.8799 7.95553L14.5695 4.49217C14.3973 4.23418 14.1641 4.02267 13.8907 3.87639C13.6172 3.7301 13.3118 3.65356 13.0017 3.65356C12.6915 3.65356 12.3861 3.7301 12.1127 3.87639C11.8392 4.02267 11.606 4.23418 11.4338 4.49217L9.12343 7.95553L7.44262 10.4756C7.28523 10.7121 7.18332 10.9811 7.14449 11.2625C7.10566 11.5439 7.13092 11.8304 7.21838 12.1007C7.30584 12.371 7.45324 12.618 7.64957 12.8233C7.84589 13.0286 8.08608 13.1869 8.35217 13.2863L7.47635 14.5967L7.18235 15.0374L5.53864 17.5024L4.08044 19.6886C3.91362 19.9387 3.79884 20.2198 3.74293 20.5151C3.68703 20.8105 3.69114 21.1141 3.75503 21.4078C3.81892 21.7016 3.94128 21.9795 4.11481 22.2249C4.28835 22.4704 4.50951 22.6784 4.76513 22.8366L3.59756 24.5821L0.367481 29.4289C-0.502718 30.7342 0.251679 32.5055 1.7987 32.7781C5.49735 33.4263 9.24552 33.7504 13.0005 33.7467C16.7557 33.7504 20.5041 33.4263 24.2029 32.7781C25.746 32.5055 26.5027 30.7342 25.6336 29.4294Z" fill="white"/>
</mask>
<g mask="url(#mask0_221_418)">
<path d="M21.9189 18.8447C19.6732 18.8447 17.4713 18.3326 15.3739 17.3218C13.7111 16.5208 12.1135 15.4066 10.6221 14.0108C8.09751 11.6464 6.76242 9.30228 6.70677 9.20334C6.60607 9.00931 6.58465 8.78375 6.64704 8.57424C6.70943 8.36472 6.85076 8.18763 7.0412 8.0803C7.23165 7.97297 7.45633 7.94381 7.66787 7.99895C7.87941 8.05409 8.06127 8.18923 8.17509 8.37586C8.18746 8.39835 9.4624 10.6244 11.811 12.8168C13.1737 14.0867 14.6274 15.0963 16.1317 15.8175C17.9907 16.7091 19.9379 17.1605 21.9189 17.1605C22.1426 17.1605 22.357 17.2493 22.5152 17.4075C22.6733 17.5656 22.7622 17.7801 22.7622 18.0037C22.7622 18.2273 22.6733 18.4418 22.5152 18.5999C22.357 18.7581 22.1426 18.8469 21.9189 18.8469V18.8447Z" fill="#FF5C5C"/>
<path d="M15.9383 11.6086C16.4549 11.6086 16.8737 11.1898 16.8737 10.6732C16.8737 10.1566 16.4549 9.73779 15.9383 9.73779C15.4217 9.73779 15.0029 10.1566 15.0029 10.6732C15.0029 11.1898 15.4217 11.6086 15.9383 11.6086Z" fill="#F7FAF5"/>
<path d="M9.87333 18.7002C10.3899 18.7002 10.8087 18.2814 10.8087 17.7648C10.8087 17.2481 10.3899 16.8293 9.87333 16.8293C9.35672 16.8293 8.93793 17.2481 8.93793 17.7648C8.93793 18.2814 9.35672 18.7002 9.87333 18.7002Z" fill="#F7FAF5"/>
<path d="M17.6483 22.3884C18.1649 22.3884 18.5837 21.9696 18.5837 21.453C18.5837 20.9364 18.1649 20.5176 17.6483 20.5176C17.1317 20.5176 16.7129 20.9364 16.7129 21.453C16.7129 21.9696 17.1317 22.3884 17.6483 22.3884Z" fill="#F7FAF5"/>
<path d="M4.6381 29.3383C5.15472 29.3383 5.57351 28.9195 5.57351 28.4029C5.57351 27.8863 5.15472 27.4675 4.6381 27.4675C4.12149 27.4675 3.7027 27.8863 3.7027 28.4029C3.7027 28.9195 4.12149 29.3383 4.6381 29.3383Z" fill="#F7FAF5"/>
<path d="M13 31.851C13.5166 31.851 13.9354 31.4322 13.9354 30.9156C13.9354 30.399 13.5166 29.9802 13 29.9802C12.4833 29.9802 12.0645 30.399 12.0645 30.9156C12.0645 31.4322 12.4833 31.851 13 31.851Z" fill="#F7FAF5"/>
<path d="M21.3619 30.915C21.8785 30.915 22.2973 30.4962 22.2973 29.9796C22.2973 29.463 21.8785 29.0442 21.3619 29.0442C20.8452 29.0442 20.4265 29.463 20.4265 29.9796C20.4265 30.4962 20.8452 30.915 21.3619 30.915Z" fill="#F7FAF5"/>
<path d="M25.6336 28.5854C21.933 28.5854 18.464 28.0592 15.3233 27.0209C12.7987 26.1861 10.4799 25.0214 8.43141 23.5581C4.91632 21.0476 3.41708 18.5342 3.35469 18.4286C3.24441 18.236 3.21446 18.0078 3.27135 17.7933C3.32823 17.5788 3.46735 17.3954 3.65856 17.2829C3.84976 17.1703 4.07764 17.1376 4.29277 17.1919C4.50791 17.2462 4.69297 17.3831 4.80783 17.573C4.8275 17.6056 6.23848 19.9396 9.48711 22.2388C11.3984 23.5879 13.5582 24.6667 15.9141 25.4391C18.867 26.4071 22.1376 26.9006 25.6336 26.9006C25.8572 26.9006 26.0717 26.9895 26.2298 27.1476C26.3879 27.3057 26.4768 27.5202 26.4768 27.7438C26.4768 27.9675 26.3879 28.182 26.2298 28.3401C26.0717 28.4982 25.8572 28.5871 25.6336 28.5871V28.5854Z" fill="#FF5C5C"/>
</g>
</svg>
