<svg width="100" height="100" viewBox="0 0 100 100" fill="none" xmlns="http://www.w3.org/2000/svg">
<circle cx="50" cy="50" r="50" fill="#F8F9FA"/>
<path d="M10 37.4076C10 33.7688 12.9145 30.7971 16.5608 30.718L41.1369 30.185C46.5724 30.0671 49.8823 36.1123 46.8457 40.6118L29.8802 65.75H16.7066C13.0026 65.75 10 62.7543 10 59.0588V37.4076Z" fill="#4FD10C"/>
<path d="M29.7365 65.7022C28.7465 65.7022 27.9162 65.479 27.2455 65.0331C26.5749 64.5551 26.1597 63.9179 26 63.1213C25.8403 62.2929 25.9841 61.3688 26.4311 60.3492L38.3593 34.7316C38.9341 33.4889 39.6367 32.5809 40.4671 32.0073C41.3293 31.4338 42.3034 31.147 43.3892 31.147C44.4751 31.147 45.4172 31.4338 46.2156 32.0073C47.0459 32.5809 47.7645 33.4889 48.3713 34.7316L60.2994 60.3492C60.8105 61.3688 60.9859 62.2929 60.8263 63.1213C60.6984 63.9497 60.2994 64.587 59.6287 65.0331C58.9902 65.479 58.1916 65.7022 57.2335 65.7022C55.9561 65.7022 54.9661 65.4154 54.2635 64.8419C53.5928 64.2684 52.986 63.3444 52.4431 62.0698L49.8563 56L53.2096 58.4375H33.4731L36.8743 56L34.2874 62.0698C33.7126 63.3444 33.1218 64.2684 32.515 64.8419C31.9082 65.4154 30.982 65.7022 29.7365 65.7022ZM43.2934 40.7537L37.7365 53.9926L36.3952 51.6985H50.3353L48.994 53.9926L43.3892 40.7537H43.2934ZM69.1473 65.272C67.7418 65.272 66.64 64.8897 65.8419 64.125C65.0755 63.3284 64.6922 62.2291 64.6922 60.8272V35.9742C64.6922 34.5404 65.0755 33.4412 65.8419 32.6764C66.6084 31.9117 67.6939 31.5294 69.0994 31.5294C70.5365 31.5294 71.622 31.9117 72.3569 32.6764C73.1234 33.4412 73.5066 34.5404 73.5066 35.9742V57.9595H85.1952C86.4086 57.9595 87.3346 58.2782 87.9737 58.9154C88.6443 59.5208 88.9796 60.413 88.9796 61.5919C88.9796 62.7708 88.6443 63.6789 87.9737 64.3162C87.3346 64.9532 86.4086 65.272 85.1952 65.272H69.1473Z" fill="black"/>
<path d="M49.0419 39.9412H38.024V53.3235H49.0419V39.9412Z" fill="black"/>
<path d="M31.0778 35.1617H13.8323C13.1709 35.1617 12.6347 35.6967 12.6347 36.3566C12.6347 37.0165 13.1709 37.5514 13.8323 37.5514H31.0778C31.7393 37.5514 32.2755 37.0165 32.2755 36.3566C32.2755 35.6967 31.7393 35.1617 31.0778 35.1617Z" fill="white"/>
<path d="M28.6826 40.897H13.8323C13.1709 40.897 12.6347 41.432 12.6347 42.0919C12.6347 42.7518 13.1709 43.2867 13.8323 43.2867H28.6826C29.3441 43.2867 29.8802 42.7518 29.8802 42.0919C29.8802 41.432 29.3441 40.897 28.6826 40.897Z" fill="white"/>
<path d="M26.2874 46.6323H13.8323C13.1709 46.6323 12.6347 47.1673 12.6347 47.8272C12.6347 48.4871 13.1709 49.022 13.8323 49.022H26.2874C26.9488 49.022 27.485 48.4871 27.485 47.8272C27.485 47.1673 26.9488 46.6323 26.2874 46.6323Z" fill="white"/>
<path d="M23.8922 52.3677H13.8323C13.1709 52.3677 12.6347 52.9026 12.6347 53.5625C12.6347 54.2224 13.1709 54.7574 13.8323 54.7574H23.8922C24.5536 54.7574 25.0898 54.2224 25.0898 53.5625C25.0898 52.9026 24.5536 52.3677 23.8922 52.3677Z" fill="white"/>
<path d="M21.497 58.103H13.8323C13.1709 58.103 12.6347 58.6379 12.6347 59.2978C12.6347 59.9577 13.1709 60.4927 13.8323 60.4927H21.497C22.1584 60.4927 22.6946 59.9577 22.6946 59.2978C22.6946 58.6379 22.1584 58.103 21.497 58.103Z" fill="white"/>
<path d="M66.7646 27.7577C66.8872 30.0749 68.754 31.929 71.0769 32.0417L71.3107 32.0472C68.8019 32.0526 66.7727 34.0859 66.778 36.589C66.7727 34.1641 64.8594 32.188 62.4594 32.0717L62.2252 32.0666C64.6558 32.0614 66.6362 30.1527 66.7531 27.7578L66.7583 27.5244L66.7646 27.7577Z" fill="#4FD10C"/>
<path d="M69.6359 34.6894C69.6393 36.2345 70.8197 37.4844 72.2721 37.4814C70.8197 37.4846 69.645 38.7397 69.6479 40.2846C69.6446 38.7396 68.4647 37.4896 67.0117 37.4926C68.4647 37.4896 69.6393 36.2345 69.6359 34.6894Z" fill="#4FD10C"/>
<path d="M65.8041 38.5109C65.806 39.4038 66.5107 40.1315 67.3945 40.1743L67.4807 40.1759C66.5567 40.1779 65.8093 40.9269 65.8113 41.8486C65.8093 40.9269 65.0592 40.1811 64.1351 40.1831C65.0592 40.1811 65.806 39.4325 65.8041 38.5109Z" fill="#4FD10C"/>
<path d="M67.9684 43.8931C68.0354 45.156 69.0845 46.1581 70.3665 46.1553C69.0429 46.1582 67.9722 47.2308 67.9751 48.5511C67.9722 47.2308 66.8972 46.1627 65.5741 46.1656C66.8972 46.1627 67.9679 45.0901 67.965 43.7698L67.9684 43.8931Z" fill="#4FD10C"/>
<path d="M70.5979 41.3723C70.5993 42.0322 71.1363 42.566 71.7979 42.5646C71.1368 42.5661 70.6017 43.1022 70.6031 43.762C70.6012 43.1021 70.0642 42.5683 69.4026 42.5697C70.0642 42.5683 70.5993 42.0323 70.5979 41.3723Z" fill="#4FD10C"/>
<path d="M43.3413 34.6838C43.3413 40.359 46.8802 44.9596 51.2455 44.9596C46.8802 44.9596 43.3413 49.5602 43.3413 55.2353C43.3413 49.5602 39.8025 44.9596 35.4371 44.9596C39.8025 44.9596 43.3413 40.359 43.3413 34.6838Z" fill="#4FD10C"/>
<path d="M48.0838 47.1103C48.0838 49.174 49.4779 50.847 51.1976 50.847C49.4779 50.847 48.0838 52.5201 48.0838 54.5837C48.0838 52.5201 46.6898 50.847 44.9701 50.847C46.6898 50.847 48.0838 49.174 48.0838 47.1103Z" fill="#4FD10C"/>
<path d="M50.3251 45.7703C50.3658 46.7345 51.03 47.5013 51.8436 47.5014C51.0038 47.5015 50.3233 48.3186 50.3233 49.3263C50.3233 48.3185 49.6423 47.5014 48.8024 47.5014C49.6161 47.5014 50.2802 46.7346 50.3209 45.7703L50.3233 45.6765L50.3251 45.7703Z" fill="#4FD10C"/>
<path d="M37.5879 46.6323C37.5879 47.7365 38.3106 48.6381 39.2192 48.6934L39.3081 48.6963C38.3583 48.6963 37.5879 49.6203 37.5879 50.7602C37.5879 49.6203 36.8181 48.6963 35.8683 48.6963C36.8181 48.6963 37.5879 47.7722 37.5879 46.6323Z" fill="#4FD10C"/>
<path d="M39.9401 49.978C39.9402 50.7467 40.4433 51.3746 41.076 51.4132L41.1377 51.415C40.4763 51.4151 39.9401 52.0584 39.9401 52.8522C39.9401 52.0833 39.437 51.4555 38.8043 51.4169L38.7425 51.415C39.4039 51.415 39.94 50.7716 39.9401 49.978Z" fill="#4FD10C"/>
</svg>
