<svg width="139" height="40" viewBox="0 0 139 40" fill="none" xmlns="http://www.w3.org/2000/svg">
<path d="M0 12.5585C0 10.3193 1.78416 8.49051 4.01625 8.44187L19.0607 8.11384C22.3881 8.04128 24.4142 11.7614 22.5553 14.5303L12.1698 30H4.10548C1.83809 30 0 28.1565 0 25.8824V12.5585Z" fill="#4FD10C"/>
<path d="M12.0819 29.9706C11.4758 29.9706 10.9676 29.8333 10.557 29.5588C10.1465 29.2647 9.8923 28.8726 9.79456 28.3824C9.69682 27.8726 9.7848 27.3039 10.0585 26.6765L17.3604 10.9118C17.7123 10.1471 18.1424 9.58826 18.6507 9.23532C19.1785 8.88238 19.7748 8.70591 20.4395 8.70591C21.1042 8.70591 21.6809 8.88238 22.1697 9.23532C22.678 9.58826 23.1178 10.1471 23.4893 10.9118L30.7912 26.6765C31.1041 27.3039 31.2114 27.8726 31.1138 28.3824C31.0355 28.8922 30.7912 29.2843 30.3806 29.5588C29.9897 29.8333 29.5009 29.9706 28.9144 29.9706C28.1324 29.9706 27.5264 29.7941 27.0963 29.4412C26.6857 29.0883 26.3142 28.5196 25.9819 27.7353L24.3984 24L26.4511 25.5H14.3692L16.4513 24L14.8678 27.7353C14.5159 28.5196 14.1542 29.0883 13.7827 29.4412C13.4113 29.7941 12.8444 29.9706 12.0819 29.9706ZM20.3808 14.6177L16.9792 22.7647L16.1581 21.353H24.6916L23.8705 22.7647L20.4395 14.6177H20.3808ZM35.709 29.9706C34.8879 29.9706 34.2524 29.745 33.8029 29.2941C33.353 28.8432 33.1284 28.1863 33.1284 27.3236V17.5883C33.1284 16.7451 33.3433 16.0981 33.7735 15.6471C34.2231 15.1961 34.8585 14.9706 35.6796 14.9706C36.5007 14.9706 37.1262 15.1961 37.5564 15.6471C37.9863 16.0981 38.2016 16.7451 38.2016 17.5883V18.9706L37.879 17.7647C38.3482 16.8432 39.0127 16.1373 39.8731 15.6471C40.7529 15.1569 41.7499 14.9118 42.8642 14.9118C44.0176 14.9118 44.9657 15.1373 45.7088 15.5883C46.4516 16.0196 47.0087 16.7059 47.3803 17.6471C47.7515 18.5686 47.9375 19.7353 47.9375 21.1471V27.3236C47.9375 28.1863 47.7125 28.8432 47.263 29.2941C46.8131 29.745 46.168 29.9706 45.3275 29.9706C44.4868 29.9706 43.8416 29.745 43.3921 29.2941C42.9422 28.8432 42.7176 28.1863 42.7176 27.3236V21.353C42.7176 20.4706 42.561 19.8432 42.2484 19.4706C41.9552 19.0981 41.5153 18.9118 40.9288 18.9118C40.1467 18.9118 39.5212 19.1667 39.052 19.6765C38.5828 20.1667 38.3482 20.8333 38.3482 21.6765V27.3236C38.3482 29.0883 37.4685 29.9706 35.709 29.9706ZM53.4928 29.9706C52.6717 29.9706 52.0362 29.7256 51.5866 29.2353C51.1371 28.7451 50.9122 28.0392 50.9122 27.1177V17.8236C50.9122 16.902 51.1371 16.1961 51.5866 15.7059C52.0362 15.2157 52.6717 14.9706 53.4928 14.9706C54.3335 14.9706 54.9787 15.2157 55.4282 15.7059C55.8974 16.1961 56.132 16.902 56.132 17.8236V27.1177C56.132 28.0392 55.9071 28.7451 55.4575 29.2353C55.008 29.7256 54.3529 29.9706 53.4928 29.9706ZM53.4928 12.8824C52.574 12.8824 51.8602 12.6667 51.352 12.2353C50.8632 11.8039 50.6189 11.1765 50.6189 10.353C50.6189 9.54905 50.8632 8.93141 51.352 8.50002C51.8602 8.06864 52.574 7.85297 53.4928 7.85297C54.4508 7.85297 55.174 8.06864 55.6628 8.50002C56.1516 8.93141 56.3959 9.54905 56.3959 10.353C56.3959 11.1765 56.1516 11.8039 55.6628 12.2353C55.174 12.6667 54.4508 12.8824 53.4928 12.8824ZM62.2389 29.7059C61.3788 29.7059 60.7043 29.4706 60.2155 29C59.7463 28.5098 59.5117 27.8333 59.5117 26.9706V11.6765C59.5117 10.7941 59.7463 10.1177 60.2155 9.64708C60.6847 9.1765 61.3495 8.9412 62.2096 8.9412C63.0893 8.9412 63.7541 9.1765 64.2037 9.64708C64.6729 10.1177 64.9075 10.7941 64.9075 11.6765V25.2059H72.0627C72.8055 25.2059 73.3727 25.402 73.7636 25.7941C74.1741 26.1667 74.3794 26.7157 74.3794 27.4412C74.3794 28.1667 74.1741 28.7255 73.7636 29.1177C73.3727 29.5097 72.8055 29.7059 72.0627 29.7059H62.2389ZM78.8943 29.9706C78.0732 29.9706 77.4377 29.7256 76.9882 29.2353C76.5386 28.7451 76.3137 28.0392 76.3137 27.1177V17.8236C76.3137 16.902 76.5386 16.1961 76.9882 15.7059C77.4377 15.2157 78.0732 14.9706 78.8943 14.9706C79.735 14.9706 80.3802 15.2157 80.8297 15.7059C81.2989 16.1961 81.5335 16.902 81.5335 17.8236V27.1177C81.5335 28.0392 81.3086 28.7451 80.859 29.2353C80.4095 29.7256 79.7544 29.9706 78.8943 29.9706ZM78.8943 12.8824C77.9755 12.8824 77.2618 12.6667 76.7536 12.2353C76.2647 11.8039 76.0204 11.1765 76.0204 10.353C76.0204 9.54905 76.2647 8.93141 76.7536 8.50002C77.2618 8.06864 77.9755 7.85297 78.8943 7.85297C79.8523 7.85297 80.5755 8.06864 81.0643 8.50002C81.5532 8.93141 81.7974 9.54905 81.7974 10.353C81.7974 11.1765 81.5532 11.8039 81.0643 12.2353C80.5755 12.6667 79.8523 12.8824 78.8943 12.8824ZM90.309 30.0294C89.4489 30.0294 88.5691 29.9609 87.6698 29.8236C86.79 29.7059 85.9886 29.4803 85.2651 29.1471C84.7763 28.951 84.4244 28.6863 84.2094 28.353C84.0138 28.0196 83.9162 27.6667 83.9162 27.2941C83.9358 26.9216 84.0431 26.5883 84.2387 26.2941C84.4537 25.9804 84.7276 25.7647 85.0598 25.6471C85.4117 25.5098 85.8026 25.5196 86.2328 25.6765C87.0539 25.9706 87.7871 26.1863 88.4322 26.3236C89.097 26.4412 89.7322 26.5 90.3383 26.5C91.0618 26.5 91.5796 26.402 91.8925 26.2059C92.2054 25.9902 92.3617 25.7157 92.3617 25.3824C92.3617 25.0883 92.2541 24.8628 92.0392 24.7059C91.8436 24.5491 91.5603 24.4412 91.1887 24.3824L87.9337 23.853C86.7217 23.6373 85.7833 23.1961 85.1185 22.5294C84.4537 21.8432 84.1214 20.951 84.1214 19.853C84.1214 18.8333 84.405 17.9608 84.9719 17.2353C85.5584 16.4902 86.3501 15.9216 87.3472 15.5294C88.3639 15.1177 89.5269 14.9118 90.8368 14.9118C91.7166 14.9118 92.518 14.9804 93.2415 15.1177C93.9649 15.2353 94.6687 15.4608 95.3529 15.7941C95.7831 15.9706 96.086 16.2255 96.262 16.5588C96.4379 16.8922 96.5062 17.2451 96.4672 17.6177C96.4282 17.9706 96.3009 18.3039 96.086 18.6177C95.8904 18.9118 95.6168 19.1177 95.2649 19.2353C94.913 19.3333 94.5025 19.3039 94.0333 19.1471C93.3881 18.8922 92.8113 18.7059 92.3031 18.5883C91.8142 18.4706 91.355 18.4118 90.9248 18.4118C90.1234 18.4118 89.5562 18.5196 89.224 18.7353C88.8917 18.951 88.7254 19.2255 88.7254 19.5588C88.7254 19.8138 88.8134 20.0294 88.9894 20.2059C89.1653 20.3628 89.4389 20.4706 89.8105 20.5294L93.0655 21.0883C94.3168 21.2843 95.2746 21.7157 95.9394 22.3824C96.6235 23.0294 96.9657 23.9118 96.9657 25.0294C96.9657 26.6177 96.3596 27.853 95.1476 28.7353C93.9356 29.598 92.3227 30.0294 90.309 30.0294ZM106.532 30.0294C105.066 30.0294 103.854 29.8038 102.896 29.353C101.957 28.902 101.253 28.2255 100.784 27.3236C100.315 26.402 100.08 25.2549 100.08 23.8824V19.0883H99.0833C98.4578 19.0883 97.969 18.9216 97.6171 18.5883C97.2848 18.2549 97.1185 17.7745 97.1185 17.1471C97.1185 16.5196 97.2848 16.0491 97.6171 15.7353C97.969 15.402 98.4578 15.2353 99.0833 15.2353H100.08V13.4118C100.08 12.5491 100.305 11.8922 100.755 11.4412C101.205 10.9902 101.85 10.7647 102.69 10.7647C103.531 10.7647 104.176 10.9902 104.626 11.4412C105.076 11.8922 105.3 12.5491 105.3 13.4118V15.2353H107.705C108.35 15.2353 108.839 15.402 109.171 15.7353C109.523 16.0491 109.699 16.5196 109.699 17.1471C109.699 17.7745 109.523 18.2549 109.171 18.5883C108.839 18.9216 108.35 19.0883 107.705 19.0883H105.3V23.7059C105.3 24.4314 105.466 24.9706 105.799 25.3236C106.151 25.6569 106.698 25.8236 107.441 25.8236C107.715 25.8236 107.979 25.7941 108.233 25.7353C108.487 25.6765 108.722 25.6471 108.936 25.6471C109.249 25.6275 109.504 25.7255 109.699 25.9412C109.895 26.1373 109.992 26.5981 109.992 27.3236C109.992 27.9118 109.904 28.4118 109.728 28.8236C109.552 29.2157 109.24 29.5 108.79 29.6765C108.516 29.7744 108.145 29.853 107.675 29.9118C107.206 29.9903 106.825 30.0294 106.532 30.0294ZM119.168 30.0294C117.408 30.0294 115.884 29.7256 114.593 29.1177C113.323 28.4902 112.345 27.6079 111.661 26.4706C110.977 25.3333 110.634 23.9902 110.634 22.4412C110.634 20.951 110.957 19.6471 111.602 18.5294C112.267 17.3922 113.166 16.5098 114.3 15.8824C115.453 15.2353 116.763 14.9118 118.23 14.9118C119.305 14.9118 120.282 15.0883 121.162 15.4412C122.042 15.7745 122.795 16.2745 123.42 16.9412C124.046 17.5883 124.515 18.3726 124.828 19.2941C125.16 20.2157 125.326 21.2451 125.326 22.3824C125.326 22.7745 125.219 23.0686 125.004 23.2647C124.789 23.4412 124.446 23.5294 123.977 23.5294H115.004V21.0588H121.514L121.045 21.4412C121.045 20.7157 120.947 20.1275 120.751 19.6765C120.556 19.2255 120.263 18.8824 119.872 18.6471C119.5 18.4118 119.031 18.2941 118.464 18.2941C117.858 18.2941 117.33 18.4412 116.881 18.7353C116.45 19.0098 116.118 19.4216 115.884 19.9706C115.649 20.5196 115.532 21.2059 115.532 22.0294V22.2941C115.532 23.6863 115.835 24.6863 116.441 25.2941C117.066 25.8824 118.024 26.1765 119.315 26.1765C119.745 26.1765 120.233 26.1275 120.781 26.0294C121.348 25.9118 121.885 25.7549 122.394 25.5588C122.902 25.3628 123.342 25.3333 123.713 25.4706C124.085 25.5883 124.368 25.8039 124.564 26.1177C124.779 26.4118 124.896 26.7549 124.916 27.1471C124.935 27.5196 124.847 27.8922 124.652 28.2647C124.456 28.6177 124.133 28.8922 123.684 29.0883C123 29.402 122.267 29.6374 121.485 29.7941C120.722 29.9509 119.95 30.0294 119.168 30.0294ZM130.244 29.9706C129.384 29.9706 128.719 29.745 128.25 29.2941C127.8 28.8432 127.575 28.1863 127.575 27.3236V17.5883C127.575 16.7451 127.79 16.0981 128.22 15.6471C128.67 15.1961 129.305 14.9706 130.126 14.9706C130.947 14.9706 131.573 15.1961 132.003 15.6471C132.433 16.0981 132.648 16.7451 132.648 17.5883V18.7941H132.355C132.551 17.6177 133.049 16.6863 133.851 16C134.672 15.3138 135.688 14.951 136.9 14.9118C137.467 14.8922 137.888 15.0392 138.161 15.353C138.455 15.6471 138.611 16.2059 138.631 17.0294C138.631 17.7353 138.484 18.2941 138.191 18.7059C137.897 19.1177 137.34 19.3628 136.519 19.4412L135.845 19.5C134.809 19.5981 134.056 19.8922 133.587 20.3824C133.117 20.853 132.883 21.5588 132.883 22.5V27.3236C132.883 28.1863 132.658 28.8432 132.208 29.2941C131.759 29.745 131.104 29.9706 130.244 29.9706Z" fill="white"/>
<path d="M23.8998 14.1177H17.155V22.353H23.8998V14.1177Z" fill="white"/>
<path d="M12.903 11.1765H2.34604C1.94115 11.1765 1.61292 11.5057 1.61292 11.9117C1.61292 12.3178 1.94115 12.647 2.34604 12.647H12.903C13.3079 12.647 13.6361 12.3178 13.6361 11.9117C13.6361 11.5057 13.3079 11.1765 12.903 11.1765Z" fill="white"/>
<path d="M11.4368 14.7059H2.34604C1.94115 14.7059 1.61292 15.0351 1.61292 15.4412C1.61292 15.8473 1.94115 16.1765 2.34604 16.1765H11.4368C11.8416 16.1765 12.1699 15.8473 12.1699 15.4412C12.1699 15.0351 11.8416 14.7059 11.4368 14.7059Z" fill="white"/>
<path d="M9.97051 18.2353H2.34604C1.94115 18.2353 1.61292 18.5645 1.61292 18.9706C1.61292 19.3767 1.94115 19.7059 2.34604 19.7059H9.97051C10.3754 19.7059 10.7036 19.3767 10.7036 18.9706C10.7036 18.5645 10.3754 18.2353 9.97051 18.2353Z" fill="white"/>
<path d="M8.50427 21.7647H2.34604C1.94115 21.7647 1.61292 22.0939 1.61292 22.5C1.61292 22.9061 1.94115 23.2353 2.34604 23.2353H8.50427C8.90916 23.2353 9.23739 22.9061 9.23739 22.5C9.23739 22.0939 8.90916 21.7647 8.50427 21.7647Z" fill="white"/>
<path d="M7.03802 25.2941H2.34604C1.94115 25.2941 1.61292 25.6233 1.61292 26.0294C1.61292 26.4355 1.94115 26.7647 2.34604 26.7647H7.03802C7.44291 26.7647 7.77114 26.4355 7.77114 26.0294C7.77114 25.6233 7.44291 25.2941 7.03802 25.2941Z" fill="white"/>
<path d="M60.848 6.62012C60.9231 8.04603 62.0659 9.18706 63.4879 9.25635L63.631 9.2598C62.0952 9.26309 60.853 10.5143 60.8563 12.0547C60.853 10.5625 59.6818 9.34644 58.2126 9.27482L58.0692 9.27171C59.5572 9.2685 60.7694 8.09394 60.841 6.62015L60.8442 6.4765L60.848 6.62012Z" fill="#4FD10C"/>
<path d="M62.6057 10.8858C62.6077 11.8366 63.3303 12.6058 64.2194 12.604C63.3303 12.606 62.6113 13.3783 62.613 14.329C62.611 13.3782 61.8887 12.609 60.9993 12.6109C61.8887 12.609 62.6077 11.8367 62.6057 10.8858Z" fill="#4FD10C"/>
<path d="M60.26 13.2375C60.2611 13.7869 60.6925 14.2348 61.2335 14.2611L61.2863 14.2621C60.7207 14.2633 60.2632 14.7243 60.2644 15.2914C60.2632 14.7243 59.804 14.2653 59.2383 14.2665C59.804 14.2653 60.2611 13.8046 60.26 13.2375Z" fill="#4FD10C"/>
<path d="M61.5849 16.5496C61.626 17.3268 62.2682 17.9434 63.0529 17.9418C62.2427 17.9435 61.5873 18.6036 61.589 19.4161C61.5873 18.6036 60.9292 17.9463 60.1193 17.948C60.9292 17.9463 61.5846 17.2863 61.5829 16.4738L61.5849 16.5496Z" fill="#4FD10C"/>
<path d="M63.1945 14.9984C63.1954 15.4044 63.5242 15.7329 63.9291 15.7321C63.5245 15.733 63.1969 16.0629 63.1978 16.4689C63.1966 16.0629 62.8679 15.7344 62.4629 15.7352C62.8679 15.7344 63.1954 15.4044 63.1945 14.9984Z" fill="#4FD10C"/>
<path d="M20.4101 10.8823C20.4101 14.3747 22.5765 17.2059 25.2487 17.2059C22.5765 17.2059 20.4101 20.037 20.4101 23.5294C20.4101 20.037 18.2438 17.2059 15.5715 17.2059C18.2438 17.2059 20.4101 14.3747 20.4101 10.8823Z" fill="#4FD10C"/>
<path d="M23.3133 18.5294C23.3133 19.7994 24.1667 20.8289 25.2195 20.8289C24.1668 20.8289 23.3133 21.8585 23.3133 23.1284C23.3133 21.8585 22.46 20.8289 21.4072 20.8289C22.46 20.8289 23.3133 19.7994 23.3133 18.5294Z" fill="#4FD10C"/>
<path d="M24.6853 17.7048C24.7102 18.2982 25.1168 18.77 25.6149 18.7701C25.1008 18.7702 24.6842 19.2729 24.6842 19.8931C24.6842 19.2729 24.2673 18.7701 23.7532 18.7701C24.2513 18.7701 24.6578 18.2982 24.6827 17.7048L24.6842 17.647L24.6853 17.7048Z" fill="#4FD10C"/>
<path d="M16.8882 18.2353C16.8882 18.9148 17.3305 19.4696 17.8868 19.5037L17.9412 19.5054C17.3597 19.5054 16.8882 20.0741 16.8882 20.7755C16.8882 20.0741 16.4169 19.5054 15.8354 19.5054C16.4169 19.5054 16.8882 18.9367 16.8882 18.2353Z" fill="#4FD10C"/>
<path d="M18.3281 20.2941C18.3282 20.7672 18.6361 21.1536 19.0234 21.1773L19.0612 21.1785C18.6563 21.1785 18.3281 21.5744 18.3281 22.0629C18.3281 21.5897 18.0201 21.2034 17.6328 21.1796L17.595 21.1785C17.9998 21.1785 18.328 20.7825 18.3281 20.2941Z" fill="#4FD10C"/>
</svg>
