<svg width="167" height="136" viewBox="0 0 167 136" fill="none" xmlns="http://www.w3.org/2000/svg">
<path d="M0 42.699C0 35.0855 6.08411 28.8677 13.6957 28.7023L64.9982 27.587C76.3449 27.3403 83.2542 39.9888 76.9153 49.403L41.5 102H14C6.26801 102 0 95.732 0 88V42.699Z" fill="#4FD10C"/>
<path d="M41.2 101.9C39.1333 101.9 37.4 101.433 36 100.5C34.6 99.5 33.7333 98.1667 33.4 96.5C33.0667 94.7667 33.3667 92.8333 34.3 90.7L59.2 37.1C60.4 34.5 61.8667 32.6 63.6 31.4C65.4 30.2 67.4333 29.6 69.7 29.6C71.9667 29.6 73.9333 30.2 75.6 31.4C77.3333 32.6 78.8333 34.5 80.1 37.1L105 90.7C106.067 92.8333 106.433 94.7667 106.1 96.5C105.833 98.2333 105 99.5667 103.6 100.5C102.267 101.433 100.6 101.9 98.6 101.9C95.9333 101.9 93.8667 101.3 92.4 100.1C91 98.9 89.7333 96.9667 88.6 94.3L83.2 81.6L90.2 86.7H49L56.1 81.6L50.7 94.3C49.5 96.9667 48.2667 98.9 47 100.1C45.7333 101.3 43.8 101.9 41.2 101.9ZM69.5 49.7L57.9 77.4L55.1 72.6H84.2L81.4 77.4L69.7 49.7H69.5ZM123.47 101C120.536 101 118.236 100.2 116.57 98.6C114.97 96.9333 114.17 94.6333 114.17 91.7V39.7C114.17 36.7 114.97 34.4 116.57 32.8C118.17 31.2 120.436 30.4 123.37 30.4C126.37 30.4 128.636 31.2 130.17 32.8C131.77 34.4 132.57 36.7 132.57 39.7V85.7H156.97C159.503 85.7 161.436 86.3667 162.77 87.7C164.17 88.9667 164.87 90.8333 164.87 93.3C164.87 95.7667 164.17 97.6667 162.77 99C161.436 100.333 159.503 101 156.97 101H123.47Z" fill="black"/>
<path d="M81.5 48H58.5V76H81.5V48Z" fill="black"/>
<path d="M44 38H8C6.61929 38 5.5 39.1193 5.5 40.5C5.5 41.8807 6.61929 43 8 43H44C45.3807 43 46.5 41.8807 46.5 40.5C46.5 39.1193 45.3807 38 44 38Z" fill="white"/>
<path d="M39 50H8C6.61929 50 5.5 51.1193 5.5 52.5C5.5 53.8807 6.61929 55 8 55H39C40.3807 55 41.5 53.8807 41.5 52.5C41.5 51.1193 40.3807 50 39 50Z" fill="white"/>
<path d="M34 62H8C6.61929 62 5.5 63.1193 5.5 64.5C5.5 65.8807 6.61929 67 8 67H34C35.3807 67 36.5 65.8807 36.5 64.5C36.5 63.1193 35.3807 62 34 62Z" fill="white"/>
<path d="M29 74H8C6.61929 74 5.5 75.1193 5.5 76.5C5.5 77.8807 6.61929 79 8 79H29C30.3807 79 31.5 77.8807 31.5 76.5C31.5 75.1193 30.3807 74 29 74Z" fill="white"/>
<path d="M24 86H8C6.61929 86 5.5 87.1193 5.5 88.5C5.5 89.8807 6.61929 91 8 91H24C25.3807 91 26.5 89.8807 26.5 88.5C26.5 87.1193 25.3807 86 24 86Z" fill="white"/>
<path d="M118.496 22.5085C118.752 27.3566 122.649 31.2361 127.498 31.4718L127.986 31.4834C122.749 31.4947 118.513 35.7489 118.524 40.9861C118.513 35.9126 114.519 31.778 109.509 31.5346L109.02 31.5239C114.094 31.5131 118.228 27.5195 118.472 22.5086L118.483 22.0203L118.496 22.5085Z" fill="#4FD10C"/>
<path d="M124.49 37.0117C124.497 40.2445 126.961 42.8598 129.993 42.8535C126.961 42.8602 124.509 45.4861 124.515 48.7187C124.508 45.486 122.045 42.8705 119.012 42.8769C122.045 42.8705 124.497 40.2446 124.49 37.0117Z" fill="#4FD10C"/>
<path d="M116.491 45.0075C116.495 46.8757 117.966 48.3983 119.811 48.4877L119.991 48.4912C118.062 48.4954 116.502 50.0625 116.506 51.9909C116.502 50.0625 114.936 48.502 113.007 48.5062C114.936 48.502 116.495 46.9358 116.491 45.0075Z" fill="#4FD10C"/>
<path d="M121.009 56.2685C121.149 58.9109 123.339 61.0076 126.015 61.0019C123.252 61.0079 121.017 63.2521 121.023 66.0146C121.017 63.2521 118.773 61.0174 116.011 61.0233C118.773 61.0174 121.008 58.7732 121.002 56.0107L121.009 56.2685Z" fill="#4FD10C"/>
<path d="M126.498 50.9944C126.501 52.3751 127.622 53.4919 129.003 53.4891C127.623 53.4921 126.506 54.6138 126.509 55.9944C126.505 54.6137 125.384 53.4968 124.003 53.4998C125.384 53.4968 126.501 52.3752 126.498 50.9944Z" fill="#4FD10C"/>
<path d="M69.6 37C69.6 48.8741 76.9873 58.5 86.1 58.5C76.9873 58.5 69.6 68.1259 69.6 80C69.6 68.1259 62.2127 58.5 53.1 58.5C62.2127 58.5 69.6 48.8741 69.6 37Z" fill="#4FD10C"/>
<path d="M79.5 63C79.5 67.3179 82.4101 70.8184 86 70.8184C82.4102 70.8184 79.5 74.3189 79.5 78.6367C79.5 74.3189 76.5899 70.8184 73 70.8184C76.5899 70.8184 79.5 67.3179 79.5 63Z" fill="#4FD10C"/>
<path d="M84.1787 60.1963C84.2636 62.2138 85.6502 63.8182 87.3486 63.8184C85.5955 63.8186 84.1748 65.5281 84.1748 67.6367C84.1748 65.5279 82.7532 63.8184 81 63.8184C82.6985 63.8184 84.085 62.2139 84.1699 60.1963L84.1748 60L84.1787 60.1963Z" fill="#4FD10C"/>
<path d="M57.5898 62C57.5898 64.3102 59.0984 66.1966 60.9951 66.3125L61.1807 66.3184C59.1979 66.3184 57.5898 68.2518 57.5898 70.6367C57.5898 68.2518 55.9828 66.3184 54 66.3184C55.9828 66.3184 57.5898 64.3849 57.5898 62Z" fill="#4FD10C"/>
<path d="M62.5 69C62.5002 70.6085 63.5504 71.9222 64.8711 72.0029L65 72.0068C63.6193 72.0069 62.5 73.3529 62.5 75.0137C62.5 73.4049 61.4497 72.0914 60.1289 72.0107L60 72.0068C61.3806 72.0068 62.4998 70.6606 62.5 69Z" fill="#4FD10C"/>
</svg>
