<svg width="195" height="174" viewBox="0 0 195 174" fill="none" xmlns="http://www.w3.org/2000/svg">
<path d="M79.8486 10.0134C87.5432 -3.3378 106.81 -3.3378 114.505 10.0134L191.653 143.876C199.338 157.209 189.714 173.863 174.325 173.863H20.0293C4.64015 173.863 -4.98311 157.209 2.70117 143.876L79.8486 10.0134ZM97.2031 133.059C97.2031 139.832 92.8794 145.322 87.5469 145.322C92.8794 145.322 97.2031 150.812 97.2031 157.585C97.2031 150.812 101.526 145.322 106.858 145.322C101.526 145.322 97.2031 139.832 97.2031 133.059ZM97.6582 29.1491C94.2011 29.1492 91.3985 33.0556 91.3984 37.8747V117.863C91.3984 122.682 94.2011 126.589 97.6582 126.59C101.115 126.59 103.918 122.682 103.918 117.863V37.8747C103.918 33.0555 101.115 29.1491 97.6582 29.1491Z" fill="#D71062"/>
</svg>
